<?xml version="1.0" encoding="UTF-8" standalone="no"?>
<!DOCTYPE svg PUBLIC "-//W3C//DTD SVG 1.1//EN" "http://www.w3.org/Graphics/SVG/1.1/DTD/svg11.dtd">
<svg width="100%" height="100%" viewBox="0 0 512 512" version="1.1" xmlns="http://www.w3.org/2000/svg" xmlns:xlink="http://www.w3.org/1999/xlink" xml:space="preserve" xmlns:serif="http://www.serif.com/" style="fill-rule:evenodd;clip-rule:evenodd;stroke-linejoin:round;stroke-miterlimit:2;">
    <path d="M403.5,455.41C360.871,487.092 309.113,504.142 256,504C118.81,504 8,393 8,256C8,118.81 119,8 256,8C317.168,7.948 376.233,30.583 421.7,71.5C422.442,72.176 422.866,73.135 422.866,74.139C422.866,76.098 421.254,77.709 419.296,77.709C419.144,77.709 418.991,77.699 418.84,77.68C400.042,75.17 381.095,73.941 362.13,74C232.77,74 139.73,127.47 139.73,229.35C139.73,338.35 231.86,375.23 316.56,408.08C350.2,421.08 381.96,433.44 403.56,449.67C404.458,450.346 404.987,451.406 404.987,452.53C404.987,453.654 404.458,454.714 403.56,455.39L403.5,455.41ZM503,233.09C502.912,232.142 502.456,231.266 501.73,230.65C449.97,187.65 408.11,170.17 357.25,170.17C273.12,170.17 277,222.34 277,223.8C277,266.4 329.06,285.8 389.34,308.29C420.41,319.88 452.53,331.86 482.02,348.22C482.538,348.498 483.118,348.643 483.706,348.643C485.162,348.643 486.479,347.752 487.02,346.4C501.07,310.384 506.542,271.587 503,233.09Z" style="fill:rgb(245,245,245);fill-rule:nonzero;"/>
</svg>
